# xmcd
#
# Track frame offsets: 
#        150
#        15218
#        37065
#        50883
#        66782
#        84687
#        115139
#        132965
#        152966
#        166918
#        192836
#        212564
#        228949
#        248815
#
# Disc length: 3606 seconds
#
# Revision: 0
# Processed by: cddbd v1.5.2PL0 Copyright (c) Steve Scherf et al.
# Submitted via: ExactAudioCopy v0.95a5
#
DISCID=ba0e140e
DTITLE=John Mayall and The Bluesbreakers - In The Palace Of The King
DYEAR=2007
DGENRE=Blues
TTITLE0=You Know That You Love Me
TTITLE1=Going Down
TTITLE2=Some Other Day, Some Other Time
TTITLE3=Palace Of The King
TTITLE4=I'd Rather Be Blind
TTITLE5=Time To Go
TTITLE6=Big Legged Woman
TTITLE7=Now I've Got A Woman
TTITLE8=I Love You More Every Day
TTITLE9=Help Me Through The Day
TTITLE10=Cannonball Shuffle
TTITLE11=You've Got Me Licked
TTITLE12=King Of The Kings
TTITLE13=Living On The Highway
EXTD=
EXTT0=
EXTT1=
EXTT2=
EXTT3=
EXTT4=
EXTT5=
EXTT6=
EXTT7=
EXTT8=
EXTT9=
EXTT10=
EXTT11=
EXTT12=
EXTT13=
PLAYORDER=
